<svg width="320" height="56" viewBox="0 0 320 56" fill="none" xmlns="http://www.w3.org/2000/svg">
<path d="M64.4709 27.7544C64.4709 22.8373 65.8596 18.7397 68.3594 15.4617C71.1369 11.9105 75.0253 10.2715 79.7471 10.2715C83.6356 10.2715 86.6908 11.3642 89.1905 13.5495C89.746 14.0959 90.0238 14.6422 90.0238 15.4617C90.0238 16.008 89.746 16.2812 89.4683 16.5544C89.1905 17.1007 88.9128 17.1007 88.3573 17.1007C88.0795 17.1007 87.524 16.8276 86.6908 16.2812L85.0243 15.1885C84.1911 14.6422 83.6356 14.369 82.8023 14.0959C82.2468 14.0959 81.1358 13.8227 79.4693 13.8227C76.1363 13.8227 73.6366 15.4617 71.6924 18.4666C70.0259 21.1983 69.1926 24.2031 69.1926 27.4812C69.1926 31.0324 70.0259 34.0373 71.6924 36.4958C73.6366 39.5007 76.4141 41.1397 79.4693 41.1397C81.6913 41.1397 83.9133 40.5933 85.5798 39.7738C86.1353 39.5007 86.6908 39.2275 87.2463 38.9543C88.0795 38.6811 88.635 38.408 89.1905 38.408C90.3015 38.408 90.857 38.9543 90.857 40.3202C90.857 40.8665 90.5793 41.4128 90.3015 41.9592C89.1905 43.0519 87.524 43.8714 85.5798 44.4177C83.6356 44.9641 81.6913 45.2372 79.7471 45.2372C75.0253 45.2372 71.1369 43.325 68.3594 39.7738C65.8596 36.4958 64.4709 32.3982 64.4709 27.7544Z" fill="#252525" stroke="#252525" stroke-width="0.25" stroke-miterlimit="10"/>
<path d="M95.0233 42.2324V12.4568C95.0233 10.8178 95.8565 10.2715 97.2452 10.2715C98.634 10.2715 99.4672 11.091 99.4672 12.73V41.1397H108.355C110.022 41.1397 110.855 41.686 110.855 43.0519C110.855 44.4177 110.299 45.2372 108.911 45.2372H97.2452C95.5787 44.9641 95.0233 43.8714 95.0233 42.2324Z" fill="#252525" stroke="#252525" stroke-width="0.25" stroke-miterlimit="10"/>
<path d="M113.077 42.5055V12.73C113.077 12.1837 113.355 11.6373 113.632 11.091C113.91 10.5447 114.466 10.2715 115.021 10.2715H128.075C129.186 10.2715 130.02 10.8178 130.02 12.1837C130.02 13.5495 129.464 14.369 128.075 14.369H117.521V24.7495H127.798C129.186 24.7495 129.742 25.2958 129.742 26.6617C129.742 28.0275 129.186 28.5739 127.798 28.5739H117.521V40.8665H128.075C129.186 40.8665 130.02 41.686 130.02 43.0519C130.02 44.4177 129.186 44.9641 127.798 44.9641H115.021C113.91 44.9641 113.077 44.1445 113.077 42.5055Z" fill="#252525" stroke="#252525" stroke-width="0.25" stroke-miterlimit="10"/>
<path d="M137.241 45.2372C136.686 45.2372 136.13 44.9641 135.852 44.6909C135.575 44.4177 135.297 43.8714 135.297 43.5982C135.297 43.0519 135.297 42.7787 135.575 42.5055L146.962 12.73C147.518 11.091 148.629 10.2715 150.017 10.2715C151.406 10.2715 152.517 11.091 153.073 12.73L164.183 42.2324C164.183 42.5055 164.46 43.0519 164.46 43.325C164.46 44.4177 163.905 44.9641 162.516 44.9641C161.405 44.9641 160.85 44.4177 160.572 43.5982L158.072 36.4958H141.963L139.463 43.5982C139.185 44.6909 138.352 45.2372 137.241 45.2372ZM149.74 14.9154L143.352 32.6714H156.406L149.74 14.9154Z" fill="#252525" stroke="#252525" stroke-width="0.25" stroke-miterlimit="10"/>
<path d="M168.627 43.0519V12.4568C168.627 10.8178 169.182 10.2715 170.293 10.2715C171.404 10.2715 171.96 10.8178 172.793 11.6373L191.124 37.5885V12.4568C191.124 11.9105 191.402 11.3642 191.68 10.8178C191.958 10.2715 192.513 10.2715 193.069 10.2715C194.457 10.2715 195.291 11.091 195.291 12.4568V43.0519C195.291 44.4177 194.735 45.2372 193.346 45.2372C192.235 45.2372 191.68 44.6909 190.847 43.8714L173.071 17.9202V43.0519C173.071 44.4177 172.237 45.2372 170.849 45.2372C169.46 45.2372 168.627 44.4177 168.627 43.0519Z" fill="#252525" stroke="#252525" stroke-width="0.25" stroke-miterlimit="10"/>
<path d="M202.234 43.0531V13.0044C202.234 12.4581 202.512 11.9117 202.79 11.3654C203.068 10.8191 203.623 10.5459 204.178 10.5459H216.955C218.066 10.5459 218.621 11.3654 218.621 12.7313C218.621 14.0971 218.066 14.6434 216.677 14.6434H206.956V25.0239H216.122C217.233 25.0239 218.066 25.5702 218.066 26.9361C218.066 28.3019 217.51 28.8483 216.122 28.8483H206.956V43.3263C206.956 44.9653 206.123 45.5116 204.734 45.5116C204.178 45.5116 203.623 45.2385 203.345 44.9653C202.512 44.1458 202.234 43.5994 202.234 43.0531Z" fill="#00A93F"/>
<path d="M236.12 45.2389C231.398 45.2389 227.787 43.3267 224.732 39.7755C221.954 36.4975 220.844 32.3999 220.844 27.756C220.844 22.839 222.232 19.0146 224.732 15.4634C227.509 11.9122 231.398 10 236.12 10C240.841 10 244.73 11.9122 247.507 15.4634C250.007 18.7414 251.396 22.839 251.396 27.756C251.396 32.3999 250.007 36.4975 247.507 39.7755C244.73 43.3267 240.841 45.2389 236.12 45.2389ZM236.12 41.4145C238.619 41.4145 240.841 40.595 242.786 38.956C244.452 37.317 245.563 35.4048 246.396 32.9463C246.674 31.5804 246.952 29.6682 246.952 27.756C246.952 23.9317 246.119 20.9268 244.452 18.4683C242.508 15.7366 239.73 14.0975 236.12 14.0975C232.509 14.0975 229.731 15.4634 227.787 18.4683C226.121 20.6536 225.287 23.9317 225.287 27.4829C225.287 31.3072 226.121 34.3121 227.787 36.7706C229.731 39.7755 232.509 41.4145 236.12 41.4145Z" fill="#00A93F"/>
<path d="M255.84 43.0531V12.7313C255.84 11.0922 256.673 10.5459 258.062 10.5459H265.561C268.616 10.5459 271.116 11.3654 273.06 13.0044C275.005 14.6434 276.116 17.102 276.116 20.1068C276.116 26.3897 272.505 29.6678 265.561 29.6678L276.949 41.6873C277.504 42.2336 277.782 42.7799 277.782 43.5994C277.782 44.6921 277.226 45.2385 275.838 45.2385C275.005 45.2385 274.449 44.9653 273.894 44.419L260.562 29.3946V43.3263C260.562 44.6921 259.728 45.5116 258.34 45.5116C256.395 45.2385 255.84 44.419 255.84 43.0531ZM260.006 14.0971V25.8434C261.673 26.1166 263.061 26.3897 264.45 26.3897C269.172 26.3897 271.672 24.2044 271.672 20.1068C271.672 16.0093 269.45 14.0971 265.283 14.0971H260.006Z" fill="#00A93F"/>
<path d="M286.67 14.0959H280.004C279.448 14.0959 278.893 13.8227 278.615 13.5495C278.337 13.2764 278.06 12.73 278.06 12.1837C278.06 11.6373 278.337 11.091 278.615 10.8178C278.893 10.5447 279.448 10.2715 280.004 10.2715H297.502C298.891 10.2715 299.724 10.8178 299.724 12.1837C299.724 13.5495 299.169 14.0959 297.78 14.0959H290.836V42.7787C290.836 43.325 290.558 43.8714 290.281 44.4177C290.003 44.6909 289.447 44.9641 288.614 44.9641C288.059 44.9641 287.503 44.6909 287.225 44.4177C286.948 43.8714 286.67 43.5982 286.67 42.7787V14.0959Z" fill="#00A93F"/>
<path d="M303.057 42.5055V12.73C303.057 12.1837 303.335 11.6373 303.613 11.091C303.89 10.5447 304.446 10.2715 305.001 10.2715H318.333C319.167 10.5447 319.722 11.091 319.722 12.4568C319.722 13.8227 319.167 14.369 317.778 14.369H307.223V24.7495H317.5C318.889 24.7495 319.444 25.2958 319.444 26.6617C319.444 28.0275 318.889 28.5739 317.5 28.5739H307.223V40.8665H318.056C319.167 40.8665 320 41.686 320 43.0519C320 44.4177 319.167 44.964 317.778 44.964H305.001C303.613 44.964 303.057 44.1445 303.057 42.5055Z" fill="#00A93F"/>
<path d="M39.4745 23.2215C38.2506 24.3215 36.9042 25.2993 35.6803 26.3993C34.0892 27.9882 32.3757 29.577 30.907 31.2881C27.7248 34.8326 25.2769 38.8659 24.4202 43.6325C24.2978 44.1214 24.2978 44.6103 24.1754 45.0992C24.1754 45.2214 24.1754 45.3436 24.053 45.5881H23.9306C23.5634 44.8547 23.1963 44.1214 22.8291 43.3881C21.8499 41.0659 21.238 38.7437 21.3604 36.2992C21.4828 34.0992 22.0947 32.0215 23.0739 29.9437C24.2978 27.4993 26.0113 25.4215 27.8472 23.3438C29.8055 21.1438 31.7637 19.066 33.5996 16.9882C35.4355 14.7882 37.2714 12.5883 38.4953 10.0216C39.1073 8.67717 39.5969 7.21051 39.7193 5.74385C39.7193 5.37719 39.7193 4.8883 39.7193 4.39941C39.8417 4.52164 39.9641 4.64386 40.0865 4.76608C43.2687 8.55495 45.3493 12.8327 46.2061 17.5993C46.4509 19.1882 46.6957 20.8993 46.6957 22.4882C46.6957 27.4993 45.2269 31.8993 41.9223 35.8103C38.8625 39.3548 35.0683 41.1881 30.4174 41.7992C29.0711 41.9214 27.7248 41.9214 26.3785 42.0436C26.2561 42.0436 26.1337 42.0436 25.8889 42.0436C27.48 38.4992 29.4383 35.1992 31.8861 32.2659C34.4564 28.9659 37.0266 26.1548 39.4745 23.2215Z" fill="#14572C"/>
<path d="M16.22 7.21094C15.9753 9.2887 16.0976 11.2442 16.4648 13.1998C16.9544 15.1553 17.444 16.9887 18.0559 18.822C18.9127 21.6331 19.647 24.5664 19.7694 27.4997C19.7694 28.8442 19.7694 30.3108 19.8918 31.6552C19.8918 33.3663 19.8918 35.1997 20.0142 36.9108C20.1366 39.7219 20.6262 42.4107 21.8501 44.9774C21.8501 45.0996 21.8501 45.0996 21.9725 45.3441C21.7277 45.2218 21.4829 45.0996 21.3605 44.9774C18.9127 43.2663 17.444 40.9441 16.5872 38.133C15.8529 35.8108 15.6081 33.3663 15.2409 31.0441C14.8737 28.7219 14.7513 26.2775 13.6498 24.0775C13.2826 23.3442 12.793 22.7331 12.3035 21.9997C12.1811 21.8775 12.0587 21.8775 11.9363 21.7553C11.9363 21.9997 12.0587 22.122 12.0587 22.2442C13.0378 24.8108 13.5274 27.3775 13.7722 30.0664C14.1394 32.9997 14.3841 35.8108 15.6081 38.7441C15.2409 38.6219 14.9961 38.4997 14.8737 38.3774C11.3243 36.2997 8.5093 33.4886 7.16298 29.4553C6.06144 26.5219 6.06144 23.4664 6.7958 20.4109C7.65255 15.8887 10.1004 12.222 13.5274 9.2887C14.2618 8.6776 14.9961 8.18871 15.7305 7.5776C15.8529 7.45538 16.0976 7.33316 16.22 7.21094Z" fill="#00A93F"/>
<path d="M0.553711 35.6883C5.8166 47.0549 14.6289 53.4105 27.7249 53.0438C38.985 52.6771 48.1645 45.2216 51.9586 35.5661C55.6304 26.2773 54.1617 13.444 44.3703 5.01074C46.5734 5.86629 51.5915 11.8551 53.4274 16.1329C55.3856 20.6551 56.3648 25.4217 55.8752 30.3106C54.8961 38.7439 51.1019 45.5883 44.3703 50.5994C39.1074 54.5105 33.2326 56.2216 26.7457 55.9771C11.5691 55.4882 2.3896 43.8772 0.553711 35.6883Z" fill="#00A93F"/>
<path d="M23.8084 23.9554C23.4412 16.8666 25.3995 10.5111 30.1728 5.25553L30.0504 5.1333C29.5609 5.49997 28.9489 5.98885 28.4593 6.35552C25.8891 8.79995 24.298 11.7333 23.3189 15.0332C22.8293 16.8666 22.4621 18.6999 22.3397 20.5332C22.3397 21.2665 22.2173 21.8777 22.2173 22.611C22.2173 22.7332 22.0949 22.9776 22.0949 23.2221C21.8501 22.9776 21.7277 22.8554 21.6054 22.611C20.5038 20.5332 19.7695 18.3332 19.6471 15.8888C19.4023 11.7333 20.7486 8.06662 23.4412 5.01108C25.8891 2.19999 28.9489 0.488886 32.6207 0C34.0894 0 35.3133 0 36.6597 0C36.782 0 36.9044 0 37.0268 0.122222C37.0268 0.122222 37.0268 0.366665 36.9044 0.488886C34.8238 2.68887 33.8446 5.49997 33.1103 8.31106C32.3759 10.8777 31.6416 13.4444 30.6624 15.8888C29.3161 19.0666 27.3578 21.6332 24.5428 23.5888C24.1756 23.711 24.0532 23.8332 23.8084 23.9554Z" fill="#54B94D"/>
<path d="M4.34793 12.832C0.798538 20.1653 0.553753 27.4986 4.10314 34.8319C6.551 39.9652 10.59 43.7541 15.8528 46.0763C20.1366 48.0318 24.5427 48.5207 29.1936 47.9096C33.8446 47.2985 37.8835 45.343 41.4329 42.4096C44.9823 39.3541 47.4302 35.5652 48.8989 31.1653C48.4093 34.0986 47.4302 36.7875 45.8391 39.3541C42.7792 44.3652 38.3731 47.9096 32.8654 49.8652C22.2173 53.5318 10.3452 49.6207 4.10314 39.9652C-2.01649 30.6764 -0.425389 19.3098 4.34793 12.832Z" fill="#14572C"/>
</svg>
