<svg width="48" height="48" viewBox="0 0 48 48" fill="none" xmlns="http://www.w3.org/2000/svg">
<g clip-path="url(#clip0)">
<path d="M10.6601 48L5.21018 36.7305C1.11387 28.2601 3.5135 18.3304 10.4454 12.5825C14.7604 9.00441 18.8772 5.19384 22.6553 1.05272L23.6157 0L25.8489 2.95059C28.6045 6.59128 30.7072 10.4626 31.9495 14.3853L10.6601 48Z" fill="#00AA95"/>
<path d="M43.9468 14.0562L43.2209 10.4277C39.6332 18.8846 30.431 23.3783 25.1563 29.2136C15.9321 39.4185 10.66 47.9995 10.66 47.9995H16.1215C40.396 47.9995 47.4597 31.6159 43.9468 14.0562Z" fill="#00CC76"/>
<path d="M43.2208 10.4277L41.8978 10.9573C38.638 12.2622 35.3149 13.3925 31.9493 14.3848V14.3849C29.9419 14.9769 27.9195 15.5197 25.8861 16.0212C17.1432 18.178 10.6599 26.0725 10.6599 35.4814V47.9995C10.66 47.9995 33.3589 33.674 43.2208 10.4277Z" fill="#A5E887"/>
</g>
<defs>
<clipPath id="clip0">
<rect width="48" height="48" fill="white"/>
</clipPath>
</defs>
</svg>
